Coordinates
version=1
nRows=14
nColumns=24
inDegrees=yes

Units are S.I. units (second, meters, Newtons, ...)
Angles are in degrees.

endheader
time	pelvis_tilt	pelvis_list	pelvis_rotation	pelvis_tx	pelvis_ty	pelvis_tz	hip_flexion_r	hip_adduction_r	hip_rotation_r	knee_angle_r	ankle_angle_r	subtalar_angle_r	mtp_angle_r	hip_flexion_l	hip_adduction_l	hip_rotation_l	knee_angle_l	ankle_angle_l	subtalar_angle_l	mtp_angle_l	lumbar_extension	lumbar_bending	lumbar_rotation
      5.17000000	     11.76183824	     -1.66728763	      8.86134882	     -1.54528289	      0.78084694	      0.23509847	     17.34244324	      2.76481551	     -0.30750718	    -13.97560900	      6.46070480	     -0.24500304	      0.00000000	    -43.71548340	     -6.32501686	     15.44602965	      2.14465607	     11.27572941	      0.86853462	      0.00000000	    -25.40031280	      5.25834117	    -11.67596987
      5.18000000	     11.89480557	     -2.07566686	      8.40078742	     -1.52810669	      0.78029951	      0.23681454	     17.58510560	      3.70354021	      0.39703475	    -16.65269449	      5.01868068	     -2.40945394	      0.00000000	    -44.04815916	     -6.28592794	     14.91669934	      0.34042197	      9.20097429	      0.49038880	      0.00000000	    -25.15686002	      5.40512593	    -10.95834923
      5.19000000	     12.09582014	     -2.48699717	      8.04328013	     -1.51088268	      0.78022754	      0.23826744	     17.68387371	      4.64501991	      1.03433227	    -19.30976558	      3.80505320	     -4.24806209	      0.00000000	    -44.16344743	     -6.24233280	     14.43381512	     -1.88257558	      7.01678409	      0.18039931	      0.00000000	    -24.95697113	      5.64982803	    -10.46498739
      5.20000000	     12.36443613	     -2.86444539	      7.63333963	     -1.49381709	      0.78059975	      0.23957659	     17.63547733	      5.57073231	      1.69128907	    -21.90519724	      3.13068564	     -5.48866333	      0.00000000	    -44.05556542	     -6.05279266	     13.96776812	     -4.53537389	      4.67697145	     -0.22652686	      0.00000000	    -24.88035603	      5.89308717	     -9.94849422
      5.21000000	     12.68574362	     -3.18667822	      7.22583339	     -1.47702021	      0.78144099	      0.24066427	     17.38801052	      6.42302921	      2.27694105	    -24.29935329	      3.09700399	     -6.19140005	      0.00000000	    -43.64721037	     -5.73456523	     13.47277132	     -7.68462021	      2.26508040	     -0.65851442	      0.00000000	    -24.91333024	      6.12130481	     -9.46587051
      5.22000000	     13.03947744	     -3.45684123	      6.86017608	     -1.46061862	      0.78274562	      0.24153224	     16.91105181	      7.17491574	      2.73627698	    -26.37328063	      3.68253745	     -6.42865908	      0.00000000	    -42.86170779	     -5.33522024	     12.78750833	    -11.37768139	     -0.11535653	     -1.01386726	      0.00000000	    -25.05994437	      6.32188619	     -9.02474710
      5.23000000	     13.38435595	     -3.70572793	      6.56500426	     -1.44473842	      0.78442501	      0.24219535	     16.22232725	      7.83411907	      3.04571855	    -28.03457481	      4.76055474	     -6.31697942	      0.00000000	    -41.62178877	     -4.94142921	     11.77103783	    -15.61960312	     -2.35828742	     -1.27267165	      0.00000000	    -25.28050781	      6.52945385	     -8.61278236
      5.24000000	     13.65266346	     -3.99651763	      6.37568251	     -1.42942566	      0.78633278	      0.24271209	     15.39308268	      8.45195212	      3.17317222	    -29.22651402	      6.10809640	     -6.02546392	      0.00000000	    -39.87292233	     -4.68195279	     10.47797884	    -20.32199021	     -4.42812843	     -1.65265018	      0.00000000	    -25.50182807	      6.79996013	     -8.19812919
      5.25000000	     13.86136656	     -4.35363882	      6.37849396	     -1.41453897	      0.78845565	      0.24310084	     14.37520357	      9.06214556	      3.10006505	    -29.87490838	      7.56165857	     -5.77635146	      0.00000000	    -37.70585395	     -4.68361139	      9.08287612	    -25.28517093	     -6.43576538	     -2.42137520	      0.00000000	    -25.65255172	      7.14687080	     -7.83311640
      5.26000000	     13.89128193	     -4.64848891	      6.48997862	     -1.40024868	      0.79058766	      0.24349439	     13.37364433	      9.54111143	      2.88784097	    -30.11914166	      9.04823541	     -5.56106984	      0.00000000	    -35.05502607	     -4.77646054	      7.83579542	    -30.39622561	     -8.24653948	     -3.65097527	      0.00000000	    -25.65699296	      7.35518040	     -7.44597442
      5.27000000	     13.90440375	     -5.03160827	      6.75157607	     -1.38636991	      0.79284739	      0.24378685	     12.20877002	     10.07662029	      2.60879130	    -29.91523984	     10.36146608	     -5.39167428	      0.00000000	    -32.20930987	     -5.11376190	      6.77439903	    -35.45481823	     -9.65376272	     -5.15826319	      0.00000000	    -25.64485870	      7.68017282	     -7.12298647
      5.28000000	     13.82888314	     -5.40634523	      7.06240343	     -1.37284310	      0.79512977	      0.24408287	     11.01373778	     10.58517910	      2.33309234	    -29.40642416	     11.51410252	     -5.24538037	      0.00000000	    -29.17969740	     -5.51379884	      5.98238923	    -40.33273691	    -10.46080267	     -6.69302937	      0.00000000	    -25.52722469	      7.94864796	     -6.76489657
      5.29000000	     13.67619843	     -5.72545545	      7.36249374	     -1.35963083	      0.79744803	      0.24437749	      9.80696328	     11.02426613	      2.10538248	    -28.67596941	     12.47417442	     -5.10114924	      0.00000000	    -26.04215352	     -5.86014660	      5.46552203	    -44.93804011	    -10.43560324	     -7.92451463	      0.00000000	    -25.32481981	      8.10526149	     -6.30739045
      5.30000000	     13.46363966	     -5.92478884	      7.56986922	     -1.34673246	      0.79983008	      0.24467442	      8.59690135	     11.33357881	      1.99910888	    -27.81532696	     13.25782399	     -4.96388153	      0.00000000	    -22.86763258	     -6.00897839	      5.19684103	    -49.20301100	     -9.47330473	     -8.53542777	      0.00000000	    -25.08930614	      8.08693301	     -5.69436748
